<svg width="120" height="100" viewBox="0 0 120 100" fill="none" xmlns="http://www.w3.org/2000/svg">
<g id="triangles">
<g id="lightGroup">
<path id="light1" d="M42 48.7679C43.3333 49.5377 43.3333 51.4623 42 52.2321L8.25 71.7176C6.91667 72.4874 5.25 71.5252 5.25 69.9856V31.0144C5.25 29.4748 6.91667 28.5126 8.25 29.2824L42 48.7679Z" fill="#8BBAFF" fill-opacity="0.67"/>
</g>
<g id="darkGroup">
<path id="dark2" d="M42 48.7679C43.3333 49.5377 43.3333 51.4622 42 52.232L8.25 71.7176C6.91667 72.4874 5.25 71.5252 5.25 69.9856V31.0144C5.25 29.4748 6.91667 28.5126 8.25 29.2824L42 48.7679Z" fill="#6769FF" fill-opacity="0.67"/>
<path id="dark1" d="M57 48.7679C58.3333 49.5377 58.3333 51.4622 57 52.232L23.25 71.7176C21.9167 72.4874 20.25 71.5252 20.25 69.9856V31.0144C20.25 29.4748 21.9167 28.5126 23.25 29.2824L57 48.7679Z" fill="#6769FF" fill-opacity="0.67"/>
</g>
</g>
</svg>
