<svg id="visual" viewBox="0 0 960 300" width="960" height="300" xmlns="http://www.w3.org/2000/svg" xmlns:xlink="http://www.w3.org/1999/xlink" version="1.1"><rect x="0" y="0" width="960" height="300" fill="#202731"></rect><path d="M0 107L22.8 106.5C45.7 106 91.3 105 137 107.2C182.7 109.3 228.3 114.7 274 116.5C319.7 118.3 365.3 116.7 411.2 109.5C457 102.3 503 89.7 548.8 90.3C594.7 91 640.3 105 686 110C731.7 115 777.3 111 823 110.2C868.7 109.3 914.3 111.7 937.2 112.8L960 114L960 0L937.2 0C914.3 0 868.7 0 823 0C777.3 0 731.7 0 686 0C640.3 0 594.7 0 548.8 0C503 0 457 0 411.2 0C365.3 0 319.7 0 274 0C228.3 0 182.7 0 137 0C91.3 0 45.7 0 22.8 0L0 0Z" fill="#fcaf3c"></path><path d="M0 79L22.8 77.2C45.7 75.3 91.3 71.7 137 74.5C182.7 77.3 228.3 86.7 274 85.3C319.7 84 365.3 72 411.2 68.7C457 65.3 503 70.7 548.8 72C594.7 73.3 640.3 70.7 686 72C731.7 73.3 777.3 78.7 823 81.8C868.7 85 914.3 86 937.2 86.5L960 87L960 0L937.2 0C914.3 0 868.7 0 823 0C777.3 0 731.7 0 686 0C640.3 0 594.7 0 548.8 0C503 0 457 0 411.2 0C365.3 0 319.7 0 274 0C228.3 0 182.7 0 137 0C91.3 0 45.7 0 22.8 0L0 0Z" fill="#f79532"></path><path d="M0 65L22.8 63.7C45.7 62.3 91.3 59.7 137 57.2C182.7 54.7 228.3 52.3 274 54.5C319.7 56.7 365.3 63.3 411.2 63C457 62.7 503 55.3 548.8 52.3C594.7 49.3 640.3 50.7 686 53.2C731.7 55.7 777.3 59.3 823 59C868.7 58.7 914.3 54.3 937.2 52.2L960 50L960 0L937.2 0C914.3 0 868.7 0 823 0C777.3 0 731.7 0 686 0C640.3 0 594.7 0 548.8 0C503 0 457 0 411.2 0C365.3 0 319.7 0 274 0C228.3 0 182.7 0 137 0C91.3 0 45.7 0 22.8 0L0 0Z" fill="#f17a2e"></path><path d="M0 35L22.8 38.8C45.7 42.7 91.3 50.3 137 49.5C182.7 48.7 228.3 39.3 274 37.3C319.7 35.3 365.3 40.7 411.2 43.2C457 45.7 503 45.3 548.8 45.8C594.7 46.3 640.3 47.7 686 48.5C731.7 49.3 777.3 49.7 823 49.2C868.7 48.7 914.3 47.3 937.2 46.7L960 46L960 0L937.2 0C914.3 0 868.7 0 823 0C777.3 0 731.7 0 686 0C640.3 0 594.7 0 548.8 0C503 0 457 0 411.2 0C365.3 0 319.7 0 274 0C228.3 0 182.7 0 137 0C91.3 0 45.7 0 22.8 0L0 0Z" fill="#e85e2e"></path><path d="M0 34L22.8 34C45.7 34 91.3 34 137 31.3C182.7 28.7 228.3 23.3 274 23C319.7 22.7 365.3 27.3 411.2 29.7C457 32 503 32 548.8 29.7C594.7 27.3 640.3 22.7 686 23.3C731.7 24 777.3 30 823 29.2C868.7 28.3 914.3 20.7 937.2 16.8L960 13L960 0L937.2 0C914.3 0 868.7 0 823 0C777.3 0 731.7 0 686 0C640.3 0 594.7 0 548.8 0C503 0 457 0 411.2 0C365.3 0 319.7 0 274 0C228.3 0 182.7 0 137 0C91.3 0 45.7 0 22.8 0L0 0Z" fill="#dd3f31"></path></svg>